15_ID_stride5.mot
nRows=13
nColumns=38

name 15_ID_stride5.mot
datacolumns 38
datarows 13
range 3.0650000000 3.1250000000
endheader
time	pelvis_tilt_moment	pelvis_list_moment	pelvis_rotation_moment	pelvis_tx_force	pelvis_ty_force	pelvis_tz_force	hip_flexion_r_moment	hip_adduction_r_moment	hip_rotation_r_moment	knee_angle_r_moment	ankle_angle_r_moment	subtalar_angle_r_moment	mtp_angle_r_moment	hip_flexion_l_moment	hip_adduction_l_moment	hip_rotation_l_moment	knee_angle_l_moment	ankle_angle_l_moment	subtalar_angle_l_moment	mtp_angle_l_moment	lumbar_extension_moment	lumbar_bending_moment	lumbar_rotation_moment	arm_flex_r_moment	arm_add_r_moment	arm_rot_r_moment	elbow_flex_r_moment	pro_sup_r_moment	wrist_flex_r_moment	wrist_dev_r_moment	arm_flex_l_moment	arm_add_l_moment	arm_rot_l_moment	elbow_flex_l_moment	pro_sup_l_moment	wrist_flex_l_moment	wrist_dev_l_moment
        3.0650000000	       16.0268197359	      -17.3623481274	        6.4146513660	      -38.6537529954	      -75.0147382683	      -35.2296259902	      -16.1032117153	      -15.1189100466	        2.4821639817	       -2.8120928236	        2.0679287939	       -0.5037607944	        0.1066494198	        5.0492651634	      -33.1660628686	        3.0410942765	      -10.8685282530	     -148.9854505167	       22.8264853108	       -0.0785293524	        0.2294870483	        4.5653962665	       40.3254470191	        5.8912796701	        5.2427059367	        4.3506897906	        3.2447795430	        0.0661901247	        0.5231179372	       -0.1495367215	       -2.0817987098	       -2.9606356104	       -3.6131180964	        2.8849992096	       -0.1773800800	       -0.3533095523	       -0.3152202640	
        3.0700000000	       11.8184691992	      -29.5977806093	        3.5897943119	      -41.4606030915	      -50.7023175639	      -34.4829147215	      -16.3640988513	      -15.6109653634	        1.9064552153	       -2.9121619489	        2.1414587015	       -0.5081732874	        0.1106316887	        0.5354763214	      -31.2449883465	        2.3935446667	      -18.0558640590	     -130.8412700495	       20.2895951161	       -0.0793072536	       -4.2047718883	        3.2883342300	       36.7466121104	        5.3827446324	        4.7826464537	        3.9627679315	        2.7926371437	        0.0638800607	        0.4720771433	       -0.1195383628	       -1.9988273095	       -2.8426290674	       -3.3402494325	        2.4294556641	       -0.1599945850	       -0.3304780292	       -0.2691598233	
        3.0750000000	        9.7049378647	      -40.3603548427	        2.6917659949	      -41.1145369322	      -27.6701376450	      -27.9907786894	      -17.0326965639	      -15.8591653007	        1.3915841600	       -3.1347957862	        2.2096393602	       -0.5225039663	        0.1148316984	       -6.1282536808	      -25.5041045588	       -1.2960236779	      -24.9962155347	     -114.5170967695	       17.9520376022	       -0.0755593848	       -7.2847752596	        1.8734949609	       33.0183712584	        4.7215276973	        4.2154879922	        3.5301700113	        2.3131256148	        0.0613757161	        0.4173451538	       -0.0881512377	       -1.9902440016	       -2.5706187158	       -2.9852130377	        1.9352385512	       -0.1398766620	       -0.3013079909	       -0.2186616825	
        3.0800000000	       11.8427616891	      -37.5842684883	        3.2271409915	      -30.8420334512	      -15.9072413673	      -20.7987539667	      -18.3727924636	      -16.0157229945	        1.1624913254	       -3.4698780558	        2.2592993460	       -0.5534401607	        0.1180676640	       -2.8269402031	      -16.6908911033	       -3.5594195500	      -24.4759389341	      -97.3038352275	       16.0939378628	       -0.0640019957	       -8.6246846356	        0.1208558014	       29.5954926581	        3.9447690331	        3.5551799220	        3.0832190506	        1.7945446905	        0.0604751000	        0.3626014343	       -0.0534279510	       -2.2133749086	       -2.2113997283	       -2.5822474351	        1.3739783945	       -0.1178150808	       -0.2701995325	       -0.1624322883	
        3.0850000000	       16.2885453134	      -25.0170388714	        3.6291623469	      -11.6964788420	      -21.2819944003	      -11.2647571717	      -20.4167557094	      -16.0104989064	        1.2237543060	       -3.8710277700	        2.2794494392	       -0.6018660687	        0.1190909758	        8.2801999032	       -6.8240989285	       -3.2722346089	      -19.2659153887	      -78.7236958148	       14.2546161629	       -0.0423914690	       -8.4984288132	       -1.9860127619	       26.7021509676	        3.0928283910	        2.8268386965	        2.6435923654	        1.2396766561	        0.0613409372	        0.3102131271	       -0.0152463544	       -2.6827843068	       -1.7844750668	       -2.1575143856	        0.7459291569	       -0.0946368339	       -0.2399585332	       -0.1012952540	
        3.0900000000	       20.2966677934	       -4.7638260523	        3.9035978347	       10.0189527896	      -45.1554814184	        1.6191660484	      -22.9327451197	      -15.7851459625	        1.4775303987	       -4.2691916473	        2.2768582620	       -0.6595982130	        0.1186654123	       23.6181857919	        1.0634496239	       -1.4956146586	      -10.0615691857	      -60.5448300188	       12.2026690071	       -0.0100026402	       -7.6279003428	       -4.3824810070	       24.4562501848	        2.2398242071	        2.0836020221	        2.2365292327	        0.6659900844	        0.0644335509	        0.2625571221	        0.0252852696	       -3.3135556508	       -1.3449709521	       -1.7500417127	        0.0734915926	       -0.0717201354	       -0.2137489122	       -0.0378985492	
        3.0950000000	       21.6692572841	       12.1451575147	        4.4259671596	       28.6475230878	      -87.8982985149	       17.6545102561	      -25.6062577207	      -14.8002657227	        1.7326351168	       -4.6523065324	        2.2439356055	       -0.7141996927	        0.1157489535	       33.6165191788	        5.6041636686	        0.8131970378	       -4.1902485525	      -45.1483207575	        9.9171022170	        0.0337382845	       -6.3858303381	       -6.9501864084	       22.8249827964	        1.4600659134	        1.3816110738	        1.8800209363	        0.1037549527	        0.0694264527	        0.2211949424	        0.0658635739	       -4.0074961374	       -0.9413928235	       -1.3908744192	       -0.6031593033	       -0.0504746369	       -0.1932755201	        0.0240002925	
        3.1000000000	       19.8398946043	       19.9406370826	        6.2549413229	       38.9212880731	     -134.4337234716	       31.1331736661	      -28.0864532277	      -12.5949413606	        1.8093834024	       -5.0764145355	        2.1813305023	       -0.7487459986	        0.1109974051	       36.2345473398	        7.4478325600	        1.9924110341	       -2.8623600753	      -33.7808158100	        7.5993065391	        0.0880124361	       -5.6747823519	       -9.5029520149	       21.6793785189	        0.8349967394	        0.7776317483	        1.5849339660	       -0.3971172471	        0.0749000193	        0.1870955852	        0.1024359883	       -4.6284253625	       -0.6110065366	       -1.1023430910	       -1.2200867477	       -0.0324628290	       -0.1787871556	        0.0790881340	
        3.1050000000	       14.9191381098	       18.2310266235	        9.2267720056	       38.8679368519	     -170.8691333765	       32.7674285152	      -30.1455009351	       -8.8284952654	        1.4250530982	       -5.7180064747	        2.0953015593	       -0.7513085072	        0.1051123920	       31.9996796442	        8.2603858620	        2.0123716521	       -5.8067519970	      -25.3411291957	        5.4138500162	        0.1506784652	       -6.2169550851	      -11.8542955140	       20.8193240538	        0.3925557369	        0.3043492323	        1.3497124259	       -0.7974790364	        0.0794241352	        0.1601050645	        0.1319259084	       -5.0923105862	       -0.3658528058	       -0.8891121474	       -1.7240049261	       -0.0186208679	       -0.1690482011	        0.1233151326	
        3.1100000000	       10.8599876253	       12.7681590545	       11.9286939414	       36.9032819792	     -177.3560085512	       28.4164885388	      -31.7059727103	       -3.8074464620	        0.7012323309	       -6.6892006527	        1.9976864520	       -0.7413119104	        0.0990591223	       26.2852768280	       10.8147460684	        2.4237731692	       -9.3681833643	      -19.1123774830	        3.9772811839	        0.2170096007	       -7.6236317528	      -13.6789145700	       19.9224671070	        0.2662161132	       -0.0484022759	        1.1432725722	       -1.0005827124	        0.0799627753	        0.1377192283	        0.1443372769	       -5.1734410778	       -0.1591235345	       -0.7214031255	       -2.0178920865	       -0.0096838610	       -0.1594220779	        0.1501558374	
        3.1150000000	        5.4012208581	        6.1130157848	       14.0000456558	       26.4130668481	     -162.2936205320	       -0.0076463660	      -32.6670583621	        2.3905162247	       -0.3819029945	       -8.1629008698	        1.9023971738	       -0.6970335827	        0.0937139063	       24.6760555568	       13.2941235607	        3.0028880581	       -9.7601826571	      -11.1713948626	        2.4370087441	        0.2835303102	      -10.4592699589	      -14.6427835129	       18.8279548548	        0.2727957631	       -0.3122968224	        0.9448157221	       -1.0461277109	        0.0771197971	        0.1180385458	        0.1457338222	       -5.0666373258	        0.0433796315	       -0.5751626444	       -2.1043480885	       -0.0050232307	       -0.1474888919	        0.1587531925	
        3.1200000000	       -7.8387177220	        4.3631801102	       15.7036733386	       11.7487887848	      -78.1759384927	      -53.0333244535	      -33.0651190418	        8.9501088846	       -1.5172418139	      -10.0674837370	        1.8317465479	       -0.6487393654	        0.0900718590	       32.7968920560	       11.4533414655	        2.3328710724	       -2.0150026335	        2.7492028989	       -0.1547861904	        0.3443400247	      -13.7209443295	      -14.8586864890	       17.3448620436	        0.5170724766	       -0.5420968624	        0.7202939489	       -0.9145721384	        0.0682324105	        0.0978949261	        0.1295056879	       -4.5791127167	        0.3007271372	       -0.4127029354	       -2.0125737409	       -0.0031127708	       -0.1293037773	        0.1545555009	
        3.1250000000	      -10.0232279556	      -14.9998461651	       17.7339836719	       10.1166726157	      -30.1403395617	      -74.9070057694	      -33.1097850662	       15.1739681540	       -2.4721071409	      -12.2522546087	        1.7941507296	       -0.6077867949	        0.0884360921	       22.9165380162	       17.4208889540	        3.0701095685	       -6.9517168317	        3.3320571911	       -0.1097945734	        0.3943707111	      -16.6542040097	      -13.9251236429	       15.4458481142	        0.8389788401	       -0.7947644693	        0.4488280326	       -0.6628703698	        0.0552327476	        0.0747476247	        0.1023118186	       -3.9047531104	        0.6477384702	       -0.2062227679	       -1.7630401876	       -0.0023458190	       -0.1037762250	        0.1377025096	
